<?xml version="1.0" encoding="UTF-8" standalone="no"?>
<!DOCTYPE svg PUBLIC "-//W3C//DTD SVG 1.1//EN"
 "http://www.w3.org/Graphics/SVG/1.1/DTD/svg11.dtd">
<!-- Generated by graphviz version 2.46.1 (0)
 -->
<!-- Pages: 1 -->
<svg width="576pt" height="179pt"
 viewBox="0.00 0.00 576.00 179.25" xmlns="http://www.w3.org/2000/svg" xmlns:xlink="http://www.w3.org/1999/xlink">
<g id="graph0" class="graph" transform="scale(0.69 0.69) rotate(0) translate(4 256)">
<polygon fill="white" stroke="transparent" points="-4,4 -4,-256 831.5,-256 831.5,4 -4,4"/>
<!-- Decision 1 -->
<g id="node1" class="node">
<title>Decision 1</title>
<path fill="#ccccff" stroke="#ccccff" d="M546.89,-248.97C546.89,-248.97 501.24,-237.03 501.24,-237.03 495.43,-235.52 495.43,-232.48 501.24,-230.97 501.24,-230.97 546.89,-219.03 546.89,-219.03 552.69,-217.52 564.31,-217.52 570.11,-219.03 570.11,-219.03 615.76,-230.97 615.76,-230.97 621.57,-232.48 621.57,-235.52 615.76,-237.03 615.76,-237.03 570.11,-248.97 570.11,-248.97 564.31,-250.48 552.69,-250.48 546.89,-248.97"/>
<text text-anchor="middle" x="558.5" y="-230.3" font-family="Times,serif" font-size="14.00">Decision 1</text>
</g>
<!-- Respond to First Client&#39;s Request -->
<g id="node4" class="node">
<title>Respond to First Client&#39;s Request</title>
<path fill="lightgrey" stroke="black" d="M421.5,-180C421.5,-180 247.5,-180 247.5,-180 241.5,-180 235.5,-174 235.5,-168 235.5,-168 235.5,-156 235.5,-156 235.5,-150 241.5,-144 247.5,-144 247.5,-144 421.5,-144 421.5,-144 427.5,-144 433.5,-150 433.5,-156 433.5,-156 433.5,-168 433.5,-168 433.5,-174 427.5,-180 421.5,-180"/>
<text text-anchor="middle" x="334.5" y="-158.3" font-family="Times,serif" font-size="14.00">Respond to First Client&#39;s Request</text>
</g>
<!-- Decision 1&#45;&gt;Respond to First Client&#39;s Request -->
<g id="edge1" class="edge">
<title>Decision 1&#45;&gt;Respond to First Client&#39;s Request</title>
<path fill="none" stroke="black" d="M528.75,-223.7C495.74,-213.39 441.48,-196.43 398.69,-183.06"/>
<polygon fill="black" stroke="black" points="399.5,-179.65 388.91,-180 397.41,-186.33 399.5,-179.65"/>
</g>
<!-- Respond to Second Client&#39;s Request -->
<g id="node5" class="node">
<title>Respond to Second Client&#39;s Request</title>
<path fill="lightgrey" stroke="black" d="M653,-180C653,-180 464,-180 464,-180 458,-180 452,-174 452,-168 452,-168 452,-156 452,-156 452,-150 458,-144 464,-144 464,-144 653,-144 653,-144 659,-144 665,-150 665,-156 665,-156 665,-168 665,-168 665,-174 659,-180 653,-180"/>
<text text-anchor="middle" x="558.5" y="-158.3" font-family="Times,serif" font-size="14.00">Respond to Second Client&#39;s Request</text>
</g>
<!-- Decision 1&#45;&gt;Respond to Second Client&#39;s Request -->
<g id="edge3" class="edge">
<title>Decision 1&#45;&gt;Respond to Second Client&#39;s Request</title>
<path fill="none" stroke="black" d="M558.5,-215.7C558.5,-207.98 558.5,-198.71 558.5,-190.11"/>
<polygon fill="black" stroke="black" points="562,-190.1 558.5,-180.1 555,-190.1 562,-190.1"/>
</g>
<!-- Both time out -->
<g id="node6" class="node">
<title>Both time out</title>
<path fill="lightgrey" stroke="black" d="M763.5,-180C763.5,-180 695.5,-180 695.5,-180 689.5,-180 683.5,-174 683.5,-168 683.5,-168 683.5,-156 683.5,-156 683.5,-150 689.5,-144 695.5,-144 695.5,-144 763.5,-144 763.5,-144 769.5,-144 775.5,-150 775.5,-156 775.5,-156 775.5,-168 775.5,-168 775.5,-174 769.5,-180 763.5,-180"/>
<text text-anchor="middle" x="729.5" y="-158.3" font-family="Times,serif" font-size="14.00">Both time out</text>
</g>
<!-- Decision 1&#45;&gt;Both time out -->
<g id="edge5" class="edge">
<title>Decision 1&#45;&gt;Both time out</title>
<path fill="none" stroke="black" d="M584.1,-222.52C608.92,-212.36 647.29,-196.65 678.37,-183.93"/>
<polygon fill="black" stroke="black" points="679.84,-187.11 687.77,-180.08 677.19,-180.63 679.84,-187.11"/>
</g>
<!-- Decision 2a -->
<g id="node2" class="node">
<title>Decision 2a</title>
<path fill="#ccccff" stroke="#ccccff" d="M322.84,-105.18C322.84,-105.18 271.76,-92.82 271.76,-92.82 265.93,-91.41 265.93,-88.59 271.76,-87.18 271.76,-87.18 322.84,-74.82 322.84,-74.82 328.67,-73.41 340.33,-73.41 346.16,-74.82 346.16,-74.82 397.24,-87.18 397.24,-87.18 403.07,-88.59 403.07,-91.41 397.24,-92.82 397.24,-92.82 346.16,-105.18 346.16,-105.18 340.33,-106.59 328.67,-106.59 322.84,-105.18"/>
<text text-anchor="middle" x="334.5" y="-86.3" font-family="Times,serif" font-size="14.00">Decision 2a</text>
</g>
<!-- Respond to Second Client&#39;s Request Next -->
<g id="node7" class="node">
<title>Respond to Second Client&#39;s Request Next</title>
<path fill="lightgrey" stroke="black" d="M231,-36C231,-36 12,-36 12,-36 6,-36 0,-30 0,-24 0,-24 0,-12 0,-12 0,-6 6,0 12,0 12,0 231,0 231,0 237,0 243,-6 243,-12 243,-12 243,-24 243,-24 243,-30 237,-36 231,-36"/>
<text text-anchor="middle" x="121.5" y="-14.3" font-family="Times,serif" font-size="14.00">Respond to Second Client&#39;s Request Next</text>
</g>
<!-- Decision 2a&#45;&gt;Respond to Second Client&#39;s Request Next -->
<g id="edge6" class="edge">
<title>Decision 2a&#45;&gt;Respond to Second Client&#39;s Request Next</title>
<path fill="none" stroke="black" d="M304.43,-79.12C273.08,-68.81 223.03,-52.37 183.21,-39.28"/>
<polygon fill="black" stroke="black" points="184.17,-35.91 173.58,-36.12 181.99,-42.56 184.17,-35.91"/>
</g>
<!-- Second Client Times Out -->
<g id="node8" class="node">
<title>Second Client Times Out</title>
<path fill="lightgrey" stroke="black" d="M404,-36C404,-36 273,-36 273,-36 267,-36 261,-30 261,-24 261,-24 261,-12 261,-12 261,-6 267,0 273,0 273,0 404,0 404,0 410,0 416,-6 416,-12 416,-12 416,-24 416,-24 416,-30 410,-36 404,-36"/>
<text text-anchor="middle" x="338.5" y="-14.3" font-family="Times,serif" font-size="14.00">Second Client Times Out</text>
</g>
<!-- Decision 2a&#45;&gt;Second Client Times Out -->
<g id="edge7" class="edge">
<title>Decision 2a&#45;&gt;Second Client Times Out</title>
<path fill="none" stroke="black" d="M335.47,-72.05C335.91,-64.35 336.44,-55.03 336.94,-46.36"/>
<polygon fill="black" stroke="black" points="340.44,-46.46 337.51,-36.28 333.45,-46.06 340.44,-46.46"/>
</g>
<!-- Decision 2b -->
<g id="node3" class="node">
<title>Decision 2b</title>
<path fill="#ccccff" stroke="#ccccff" d="M546.83,-105.21C546.83,-105.21 494.93,-92.79 494.93,-92.79 489.09,-91.4 489.09,-88.6 494.93,-87.21 494.93,-87.21 546.83,-74.79 546.83,-74.79 552.66,-73.4 564.34,-73.4 570.17,-74.79 570.17,-74.79 622.07,-87.21 622.07,-87.21 627.91,-88.6 627.91,-91.4 622.07,-92.79 622.07,-92.79 570.17,-105.21 570.17,-105.21 564.34,-106.6 552.66,-106.6 546.83,-105.21"/>
<text text-anchor="middle" x="558.5" y="-86.3" font-family="Times,serif" font-size="14.00">Decision 2b</text>
</g>
<!-- Respond to First Client&#39;s Request Next -->
<g id="node9" class="node">
<title>Respond to First Client&#39;s Request Next</title>
<path fill="lightgrey" stroke="black" d="M657.5,-36C657.5,-36 453.5,-36 453.5,-36 447.5,-36 441.5,-30 441.5,-24 441.5,-24 441.5,-12 441.5,-12 441.5,-6 447.5,0 453.5,0 453.5,0 657.5,0 657.5,0 663.5,0 669.5,-6 669.5,-12 669.5,-12 669.5,-24 669.5,-24 669.5,-30 663.5,-36 657.5,-36"/>
<text text-anchor="middle" x="555.5" y="-14.3" font-family="Times,serif" font-size="14.00">Respond to First Client&#39;s Request Next</text>
</g>
<!-- Decision 2b&#45;&gt;Respond to First Client&#39;s Request Next -->
<g id="edge8" class="edge">
<title>Decision 2b&#45;&gt;Respond to First Client&#39;s Request Next</title>
<path fill="none" stroke="black" d="M557.77,-72.05C557.44,-64.35 557.04,-55.03 556.67,-46.36"/>
<polygon fill="black" stroke="black" points="560.17,-46.12 556.24,-36.28 553.17,-46.42 560.17,-46.12"/>
</g>
<!-- First Client Times Out -->
<g id="node10" class="node">
<title>First Client Times Out</title>
<path fill="lightgrey" stroke="black" d="M815.5,-36C815.5,-36 699.5,-36 699.5,-36 693.5,-36 687.5,-30 687.5,-24 687.5,-24 687.5,-12 687.5,-12 687.5,-6 693.5,0 699.5,0 699.5,0 815.5,0 815.5,0 821.5,0 827.5,-6 827.5,-12 827.5,-12 827.5,-24 827.5,-24 827.5,-30 821.5,-36 815.5,-36"/>
<text text-anchor="middle" x="757.5" y="-14.3" font-family="Times,serif" font-size="14.00">First Client Times Out</text>
</g>
<!-- Decision 2b&#45;&gt;First Client Times Out -->
<g id="edge9" class="edge">
<title>Decision 2b&#45;&gt;First Client Times Out</title>
<path fill="none" stroke="black" d="M587.44,-78.82C616.63,-68.55 662.51,-52.41 699.27,-39.48"/>
<polygon fill="black" stroke="black" points="700.61,-42.72 708.89,-36.1 698.29,-36.12 700.61,-42.72"/>
</g>
<!-- Respond to First Client&#39;s Request&#45;&gt;Decision 2a -->
<g id="edge2" class="edge">
<title>Respond to First Client&#39;s Request&#45;&gt;Decision 2a</title>
<path fill="none" stroke="black" d="M334.5,-143.7C334.5,-135.98 334.5,-126.71 334.5,-118.11"/>
<polygon fill="black" stroke="black" points="338,-118.1 334.5,-108.1 331,-118.1 338,-118.1"/>
</g>
<!-- Respond to Second Client&#39;s Request&#45;&gt;Decision 2b -->
<g id="edge4" class="edge">
<title>Respond to Second Client&#39;s Request&#45;&gt;Decision 2b</title>
<path fill="none" stroke="black" d="M558.5,-143.7C558.5,-135.98 558.5,-126.71 558.5,-118.11"/>
<polygon fill="black" stroke="black" points="562,-118.1 558.5,-108.1 555,-118.1 562,-118.1"/>
</g>
</g>
</svg>
