<?xml version="1.0" encoding="UTF-8" standalone="no"?>
<!DOCTYPE svg PUBLIC "-//W3C//DTD SVG 1.1//EN"
 "http://www.w3.org/Graphics/SVG/1.1/DTD/svg11.dtd">
<!-- Generated by graphviz version 2.50.0 (0)
 -->
<!-- Pages: 1 -->
<svg width="576pt" height="172pt"
 viewBox="0.00 0.00 576.00 171.94" xmlns="http://www.w3.org/2000/svg" xmlns:xlink="http://www.w3.org/1999/xlink">
<g id="graph0" class="graph" transform="scale(0.66 0.66) rotate(0) translate(4 256)">
<polygon fill="white" stroke="transparent" points="-4,4 -4,-256 867,-256 867,4 -4,4"/>
<!-- Decision 1 -->
<g id="node1" class="node">
<title>Decision 1</title>
<path fill="#ccccff" stroke="#ccccff" d="M573.36,-249.09C573.36,-249.09 524.75,-236.91 524.75,-236.91 518.93,-235.46 518.93,-232.54 524.75,-231.09 524.75,-231.09 573.36,-218.91 573.36,-218.91 579.18,-217.46 590.82,-217.46 596.64,-218.91 596.64,-218.91 645.25,-231.09 645.25,-231.09 651.07,-232.54 651.07,-235.46 645.25,-236.91 645.25,-236.91 596.64,-249.09 596.64,-249.09 590.82,-250.54 579.18,-250.54 573.36,-249.09"/>
<text text-anchor="middle" x="585" y="-230.3" font-family="Times,serif" font-size="14.00">Decision 1</text>
</g>
<!-- Respond to First Client&#39;s Request -->
<g id="node4" class="node">
<title>Respond to First Client&#39;s Request</title>
<path fill="lightgrey" stroke="black" d="M442.5,-180C442.5,-180 259.5,-180 259.5,-180 253.5,-180 247.5,-174 247.5,-168 247.5,-168 247.5,-156 247.5,-156 247.5,-150 253.5,-144 259.5,-144 259.5,-144 442.5,-144 442.5,-144 448.5,-144 454.5,-150 454.5,-156 454.5,-156 454.5,-168 454.5,-168 454.5,-174 448.5,-180 442.5,-180"/>
<text text-anchor="middle" x="351" y="-158.3" font-family="Times,serif" font-size="14.00">Respond to First Client&#39;s Request</text>
</g>
<!-- Decision 1&#45;&gt;Respond to First Client&#39;s Request -->
<g id="edge1" class="edge">
<title>Decision 1&#45;&gt;Respond to First Client&#39;s Request</title>
<path fill="none" stroke="black" d="M553.93,-223.7C519.3,-213.34 462.28,-196.29 417.49,-182.89"/>
<polygon fill="black" stroke="black" points="418.42,-179.52 407.84,-180 416.42,-186.22 418.42,-179.52"/>
</g>
<!-- Respond to Second Client&#39;s Request -->
<g id="node5" class="node">
<title>Respond to Second Client&#39;s Request</title>
<path fill="lightgrey" stroke="black" d="M685,-180C685,-180 485,-180 485,-180 479,-180 473,-174 473,-168 473,-168 473,-156 473,-156 473,-150 479,-144 485,-144 485,-144 685,-144 685,-144 691,-144 697,-150 697,-156 697,-156 697,-168 697,-168 697,-174 691,-180 685,-180"/>
<text text-anchor="middle" x="585" y="-158.3" font-family="Times,serif" font-size="14.00">Respond to Second Client&#39;s Request</text>
</g>
<!-- Decision 1&#45;&gt;Respond to Second Client&#39;s Request -->
<g id="edge3" class="edge">
<title>Decision 1&#45;&gt;Respond to Second Client&#39;s Request</title>
<path fill="none" stroke="black" d="M585,-215.7C585,-207.98 585,-198.71 585,-190.11"/>
<polygon fill="black" stroke="black" points="588.5,-190.1 585,-180.1 581.5,-190.1 588.5,-190.1"/>
</g>
<!-- Both time out -->
<g id="node6" class="node">
<title>Both time out</title>
<path fill="lightgrey" stroke="black" d="M799,-180C799,-180 727,-180 727,-180 721,-180 715,-174 715,-168 715,-168 715,-156 715,-156 715,-150 721,-144 727,-144 727,-144 799,-144 799,-144 805,-144 811,-150 811,-156 811,-156 811,-168 811,-168 811,-174 805,-180 799,-180"/>
<text text-anchor="middle" x="763" y="-158.3" font-family="Times,serif" font-size="14.00">Both time out</text>
</g>
<!-- Decision 1&#45;&gt;Both time out -->
<g id="edge5" class="edge">
<title>Decision 1&#45;&gt;Both time out</title>
<path fill="none" stroke="black" d="M611.65,-222.52C637.6,-212.31 677.77,-196.52 710.2,-183.76"/>
<polygon fill="black" stroke="black" points="711.53,-187 719.56,-180.08 708.97,-180.49 711.53,-187"/>
</g>
<!-- Decision 2a -->
<g id="node2" class="node">
<title>Decision 2a</title>
<path fill="#ccccff" stroke="#ccccff" d="M339.31,-105.28C339.31,-105.28 285.27,-92.72 285.27,-92.72 279.43,-91.36 279.43,-88.64 285.27,-87.28 285.27,-87.28 339.31,-74.72 339.31,-74.72 345.16,-73.36 356.84,-73.36 362.69,-74.72 362.69,-74.72 416.73,-87.28 416.73,-87.28 422.57,-88.64 422.57,-91.36 416.73,-92.72 416.73,-92.72 362.69,-105.28 362.69,-105.28 356.84,-106.64 345.16,-106.64 339.31,-105.28"/>
<text text-anchor="middle" x="351" y="-86.3" font-family="Times,serif" font-size="14.00">Decision 2a</text>
</g>
<!-- Respond to Second Client&#39;s Request Next -->
<g id="node7" class="node">
<title>Respond to Second Client&#39;s Request Next</title>
<path fill="lightgrey" stroke="black" d="M244,-36C244,-36 12,-36 12,-36 6,-36 0,-30 0,-24 0,-24 0,-12 0,-12 0,-6 6,0 12,0 12,0 244,0 244,0 250,0 256,-6 256,-12 256,-12 256,-24 256,-24 256,-30 250,-36 244,-36"/>
<text text-anchor="middle" x="128" y="-14.3" font-family="Times,serif" font-size="14.00">Respond to Second Client&#39;s Request Next</text>
</g>
<!-- Decision 2a&#45;&gt;Respond to Second Client&#39;s Request Next -->
<g id="edge6" class="edge">
<title>Decision 2a&#45;&gt;Respond to Second Client&#39;s Request Next</title>
<path fill="none" stroke="black" d="M319.52,-79.12C286.55,-68.77 233.86,-52.23 192.08,-39.11"/>
<polygon fill="black" stroke="black" points="193.11,-35.77 182.53,-36.12 191.02,-42.45 193.11,-35.77"/>
</g>
<!-- Second Client Times Out -->
<g id="node8" class="node">
<title>Second Client Times Out</title>
<path fill="lightgrey" stroke="black" d="M423.5,-36C423.5,-36 286.5,-36 286.5,-36 280.5,-36 274.5,-30 274.5,-24 274.5,-24 274.5,-12 274.5,-12 274.5,-6 280.5,0 286.5,0 286.5,0 423.5,0 423.5,0 429.5,0 435.5,-6 435.5,-12 435.5,-12 435.5,-24 435.5,-24 435.5,-30 429.5,-36 423.5,-36"/>
<text text-anchor="middle" x="355" y="-14.3" font-family="Times,serif" font-size="14.00">Second Client Times Out</text>
</g>
<!-- Decision 2a&#45;&gt;Second Client Times Out -->
<g id="edge7" class="edge">
<title>Decision 2a&#45;&gt;Second Client Times Out</title>
<path fill="none" stroke="black" d="M351.97,-72.05C352.41,-64.35 352.94,-55.03 353.44,-46.36"/>
<polygon fill="black" stroke="black" points="356.94,-46.46 354.01,-36.28 349.95,-46.06 356.94,-46.46"/>
</g>
<!-- Decision 2b -->
<g id="node3" class="node">
<title>Decision 2b</title>
<path fill="#ccccff" stroke="#ccccff" d="M573.3,-105.34C573.3,-105.34 517.61,-92.66 517.61,-92.66 511.76,-91.33 511.76,-88.67 517.61,-87.34 517.61,-87.34 573.3,-74.66 573.3,-74.66 579.15,-73.33 590.85,-73.33 596.7,-74.66 596.7,-74.66 652.39,-87.34 652.39,-87.34 658.24,-88.67 658.24,-91.33 652.39,-92.66 652.39,-92.66 596.7,-105.34 596.7,-105.34 590.85,-106.67 579.15,-106.67 573.3,-105.34"/>
<text text-anchor="middle" x="585" y="-86.3" font-family="Times,serif" font-size="14.00">Decision 2b</text>
</g>
<!-- Respond to First Client&#39;s Request Next -->
<g id="node9" class="node">
<title>Respond to First Client&#39;s Request Next</title>
<path fill="lightgrey" stroke="black" d="M688.5,-36C688.5,-36 473.5,-36 473.5,-36 467.5,-36 461.5,-30 461.5,-24 461.5,-24 461.5,-12 461.5,-12 461.5,-6 467.5,0 473.5,0 473.5,0 688.5,0 688.5,0 694.5,0 700.5,-6 700.5,-12 700.5,-12 700.5,-24 700.5,-24 700.5,-30 694.5,-36 688.5,-36"/>
<text text-anchor="middle" x="581" y="-14.3" font-family="Times,serif" font-size="14.00">Respond to First Client&#39;s Request Next</text>
</g>
<!-- Decision 2b&#45;&gt;Respond to First Client&#39;s Request Next -->
<g id="edge8" class="edge">
<title>Decision 2b&#45;&gt;Respond to First Client&#39;s Request Next</title>
<path fill="none" stroke="black" d="M584.03,-72.05C583.59,-64.35 583.06,-55.03 582.56,-46.36"/>
<polygon fill="black" stroke="black" points="586.05,-46.06 581.99,-36.28 579.06,-46.46 586.05,-46.06"/>
</g>
<!-- First Client Times Out -->
<g id="node10" class="node">
<title>First Client Times Out</title>
<path fill="lightgrey" stroke="black" d="M851,-36C851,-36 731,-36 731,-36 725,-36 719,-30 719,-24 719,-24 719,-12 719,-12 719,-6 725,0 731,0 731,0 851,0 851,0 857,0 863,-6 863,-12 863,-12 863,-24 863,-24 863,-30 857,-36 851,-36"/>
<text text-anchor="middle" x="791" y="-14.3" font-family="Times,serif" font-size="14.00">First Client Times Out</text>
</g>
<!-- Decision 2b&#45;&gt;First Client Times Out -->
<g id="edge9" class="edge">
<title>Decision 2b&#45;&gt;First Client Times Out</title>
<path fill="none" stroke="black" d="M615.4,-78.67C645.7,-68.37 693.08,-52.28 730.98,-39.39"/>
<polygon fill="black" stroke="black" points="732.56,-42.56 740.9,-36.02 730.3,-35.93 732.56,-42.56"/>
</g>
<!-- Respond to First Client&#39;s Request&#45;&gt;Decision 2a -->
<g id="edge2" class="edge">
<title>Respond to First Client&#39;s Request&#45;&gt;Decision 2a</title>
<path fill="none" stroke="black" d="M351,-143.7C351,-135.98 351,-126.71 351,-118.11"/>
<polygon fill="black" stroke="black" points="354.5,-118.1 351,-108.1 347.5,-118.1 354.5,-118.1"/>
</g>
<!-- Respond to Second Client&#39;s Request&#45;&gt;Decision 2b -->
<g id="edge4" class="edge">
<title>Respond to Second Client&#39;s Request&#45;&gt;Decision 2b</title>
<path fill="none" stroke="black" d="M585,-143.7C585,-135.98 585,-126.71 585,-118.11"/>
<polygon fill="black" stroke="black" points="588.5,-118.1 585,-108.1 581.5,-118.1 588.5,-118.1"/>
</g>
</g>
</svg>
